# Blender v3.0.0 OBJ File: ''
# www.blender.org
mtllib dayblock.mtl
o Box_58
v 0.028449 -0.484758 -0.084568
v -0.145913 -0.484321 -0.087567
v -0.145786 -0.376756 -0.077465
v 0.028576 -0.377194 -0.074466
v 0.029956 -0.502678 0.124760
v 0.030083 -0.395113 0.134861
v -0.144406 -0.502241 0.121761
v -0.144279 -0.394676 0.131862
vt 0.500000 0.666667
vt 0.250000 0.666667
vt 0.250000 0.333333
vt 0.500000 0.333333
vt 0.750000 0.666667
vt 0.750000 0.333333
vt 0.500000 1.000000
vt 0.250000 1.000000
vt 1.000000 0.333333
vt 1.000000 0.666667
vt 0.000000 0.666667
vt 0.000000 0.333333
vt 0.250000 0.000000
vt 0.500000 0.000000
vn 0.5786 -0.5259 -0.6235
vn -0.5752 -0.5214 -0.6303
vn -0.5749 0.6261 -0.5268
vn 0.5807 0.6268 -0.5196
vn 0.5749 -0.6261 0.5268
vn 0.5752 0.5214 0.6303
vn -0.5807 -0.6268 0.5196
vn -0.5786 0.5259 0.6235
usemtl Box_58
s 1
f 1/1/1 2/2/2 3/3/3 4/4/4
f 5/5/5 1/1/1 4/4/4 6/6/6
f 5/7/5 7/8/7 2/2/2 1/1/1
f 5/5/5 6/6/6 8/9/8 7/10/7
f 7/11/7 8/12/8 3/3/3 2/2/2
f 3/3/3 8/13/8 6/14/6 4/4/4
o Box_13
v -0.046919 -0.408438 -0.040458
v -0.047990 -0.344476 -0.025059
v -0.037831 -0.344983 -0.021781
v -0.035508 -0.409007 -0.036776
v -0.004281 -0.414056 -0.002318
v -0.010032 -0.349477 0.008895
v -0.007815 -0.350971 0.019272
v -0.001791 -0.415733 0.009338
v -0.028583 -0.345777 -0.016477
v -0.025118 -0.409899 -0.030818
v -0.016242 -0.421992 0.053439
v -0.020680 -0.356543 0.058533
v -0.028623 -0.357529 0.065632
v -0.025164 -0.423100 0.061413
v -0.020647 -0.346822 -0.009379
v -0.016205 -0.411073 -0.022845
v -0.058852 -0.408215 -0.041703
v -0.058614 -0.344278 -0.026167
v -0.096597 -0.346540 -0.009375
v -0.088655 -0.345553 -0.016474
v -0.092596 -0.409648 -0.030815
v -0.101518 -0.410756 -0.022841
v -0.009156 -0.412479 -0.013204
v -0.014372 -0.348074 -0.000796
v -0.107246 -0.353606 0.040262
v -0.109462 -0.352112 0.029885
v -0.115969 -0.417015 0.021260
v -0.113479 -0.418693 0.032916
v -0.004298 -0.419098 0.032911
v -0.010047 -0.353967 0.040258
v -0.014397 -0.355338 0.049950
v -0.009184 -0.420638 0.043798
v -0.037877 -0.358254 0.070937
v -0.048039 -0.358686 0.074216
v -0.046973 -0.424399 0.071055
v -0.035559 -0.423915 0.067372
v -0.001797 -0.417439 0.021255
v -0.007821 -0.352490 0.029881
v -0.058664 -0.358805 0.075325
v -0.069288 -0.358607 0.074217
v -0.070842 -0.424311 0.071056
v -0.058908 -0.424533 0.072301
v -0.079446 -0.358100 0.070939
v -0.082252 -0.423741 0.067374
v -0.082201 -0.408834 -0.036774
v -0.079401 -0.344829 -0.021779
v -0.069239 -0.344397 -0.025058
v -0.070787 -0.408349 -0.040457
v -0.088695 -0.357306 0.065635
v -0.096631 -0.356261 0.058536
v -0.101555 -0.421675 0.053442
v -0.092642 -0.422850 0.061416
v -0.108604 -0.420269 0.043802
v -0.102906 -0.355009 0.049954
v -0.109457 -0.350593 0.019277
v -0.115963 -0.415309 0.009343
v -0.107231 -0.349116 0.008899
v -0.113462 -0.413650 -0.002314
v -0.108576 -0.412110 -0.013200
v -0.102881 -0.347745 -0.000792
vt 0.966667 0.500000
vt 0.966667 1.000000
vt 0.933333 1.000000
vt 0.933333 0.500000
vt 0.800000 0.500000
vt 0.800000 1.000000
vt 0.766667 1.000000
vt 0.766667 0.500000
vt 0.900000 1.000000
vt 0.900000 0.500000
vt 0.633333 0.500000
vt 0.633333 1.000000
vt 0.600000 1.000000
vt 0.600000 0.500000
vt 0.866667 1.000000
vt 0.866667 0.500000
vt 1.000000 0.500000
vt 1.000000 1.000000
vt 0.133333 1.000000
vt 0.100000 1.000000
vt 0.100000 0.500000
vt 0.133333 0.500000
vt 0.833333 0.500000
vt 0.833333 1.000000
vt 0.300000 1.000000
vt 0.266667 1.000000
vt 0.266667 0.500000
vt 0.300000 0.500000
vt 0.700000 0.500000
vt 0.700000 1.000000
vt 0.666667 1.000000
vt 0.666667 0.500000
vt 0.566667 1.000000
vt 0.533333 1.000000
vt 0.533333 0.500000
vt 0.566667 0.500000
vt 0.733333 0.500000
vt 0.733333 1.000000
vt 0.500000 1.000000
vt 0.466667 1.000000
vt 0.466667 0.500000
vt 0.500000 0.500000
vt 0.433333 1.000000
vt 0.433333 0.500000
vt 0.066667 0.500000
vt 0.066667 1.000000
vt 0.033333 1.000000
vt 0.033333 0.500000
vt 0.400000 1.000000
vt 0.366667 1.000000
vt 0.366667 0.500000
vt 0.400000 0.500000
vt 0.333333 0.500000
vt 0.333333 1.000000
vt 0.233333 1.000000
vt 0.233333 0.500000
vt 0.200000 1.000000
vt 0.200000 0.500000
vt 0.166667 0.500000
vt 0.166667 1.000000
vt 0.800938 0.489646
vt 0.750000 0.495000
vt 0.699062 0.489646
vt 0.650350 0.473819
vt 0.605993 0.448209
vt 0.567930 0.413937
vt 0.537824 0.372500
vt 0.516991 0.325709
vt 0.506342 0.275609
vt 0.506342 0.224391
vt 0.516991 0.174291
vt 0.537824 0.127500
vt 0.567930 0.086063
vt 0.605993 0.051791
vt 0.650349 0.026181
vt 0.699062 0.010354
vt 0.750000 0.005000
vt 0.800938 0.010354
vt 0.849650 0.026181
vt 0.894007 0.051791
vt 0.932070 0.086063
vt 0.962176 0.127500
vt 0.983009 0.174291
vt 0.993658 0.224391
vt 0.993658 0.275609
vt 0.983009 0.325709
vt 0.962176 0.372500
vt 0.932070 0.413937
vt 0.894007 0.448209
vt 0.849651 0.473819
vt 0.000000 1.000000
vt 0.000000 0.500000
vn 0.2084 0.2322 -0.9501
vn 0.1480 0.8071 -0.5716
vn 0.2866 0.8002 -0.5268
vn 0.4067 0.2223 -0.8861
vn 0.9474 0.1348 -0.2901
vn 0.6644 0.7392 -0.1104
vn 0.6944 0.7190 0.0300
vn 0.9904 0.1058 -0.0892
vn 0.4126 0.7894 -0.4546
vn 0.5870 0.2068 -0.7827
vn 0.7408 -0.0021 0.6718
vn 0.5200 0.6435 0.5617
vn 0.4120 0.6301 0.6582
vn 0.5862 -0.0212 0.8099
vn 0.5204 0.7752 -0.3581
vn 0.7414 0.1864 -0.6447
vn 0.0008 0.2361 -0.9717
vn 0.0030 0.8098 -0.5867
vn -0.5147 0.7790 -0.3580
vn -0.4067 0.7924 -0.4545
vn -0.5855 0.2111 -0.7827
vn -0.7400 0.1919 -0.6446
vn 0.8633 0.1620 -0.4780
vn 0.6056 0.7582 -0.2416
vn -0.6591 0.6834 0.3140
vn -0.6891 0.7036 0.1736
vn -0.9897 0.0838 0.1163
vn -0.9468 0.0549 0.3173
vn 0.9472 0.0478 0.3172
vn 0.6642 0.6785 0.3139
vn 0.6053 0.6599 0.4452
vn 0.8628 0.0213 0.5051
vn 0.2860 0.6202 0.7304
vn 0.1474 0.6143 0.7752
vn 0.2074 -0.0436 0.9773
vn 0.4058 -0.0353 0.9133
vn 0.9903 0.0764 0.1162
vn 0.6943 0.6985 0.1735
vn 0.0023 0.6127 0.7903
vn -0.1427 0.6154 0.7752
vn -0.2077 -0.0421 0.9773
vn -0.0001 -0.0460 0.9989
vn -0.2813 0.6223 0.7305
vn -0.4060 -0.0322 0.9133
vn -0.4051 0.2253 -0.8861
vn -0.2807 0.8023 -0.5268
vn -0.1421 0.8082 -0.5715
vn -0.2067 0.2338 -0.9501
vn -0.4073 0.6332 0.6582
vn -0.5152 0.6474 0.5617
vn -0.7407 0.0034 0.6718
vn -0.5863 -0.0168 0.8099
vn -0.8626 0.0277 0.5052
vn -0.6003 0.6644 0.4453
vn -0.6890 0.7241 0.0301
vn -0.9896 0.1132 -0.0891
vn -0.6589 0.7441 -0.1103
vn -0.9464 0.1418 -0.2901
vn -0.8621 0.1684 -0.4780
vn -0.6000 0.7627 -0.2416
usemtl Box_13
s 1
f 9/15/9 10/16/10 11/17/11 12/18/12
f 13/19/13 14/20/14 15/21/15 16/22/16
f 12/18/12 11/17/11 17/23/17 18/24/18
f 19/25/19 20/26/20 21/27/21 22/28/22
f 18/24/18 17/23/17 23/29/23 24/30/24
f 25/31/25 26/32/26 10/16/10 9/15/9
f 27/33/27 28/34/28 29/35/29 30/36/30
f 31/37/31 32/38/32 14/20/14 13/19/13
f 33/39/33 34/40/34 35/41/35 36/42/36
f 37/43/37 38/44/38 39/45/39 40/46/40
f 41/47/41 42/48/42 43/49/43 44/50/44
f 45/51/45 46/52/46 38/44/38 37/43/37
f 47/53/47 48/54/48 49/55/49 50/56/50
f 42/48/42 47/53/47 50/56/50 43/49/43
f 49/55/49 48/54/48 51/57/51 52/58/52
f 22/28/22 21/27/21 41/47/41 44/50/44
f 15/21/15 46/52/46 45/51/45 16/22/16
f 53/59/53 54/60/54 55/61/55 56/62/56
f 57/63/57 58/64/58 59/65/59 60/66/60
f 29/35/29 28/34/28 54/60/54 53/59/53
f 52/58/52 51/57/51 57/63/57 60/66/60
f 61/67/61 62/68/62 33/39/33 36/42/36
f 39/45/39 20/26/20 19/25/19 40/46/40
f 59/65/59 58/64/58 62/68/62 61/67/61
f 35/41/35 34/40/34 63/69/63 64/70/64
f 63/69/63 65/71/65 66/72/66 64/70/64
f 67/73/67 68/74/68 27/33/27 30/36/30
f 10/75/10 26/76/26 55/77/55 54/78/54 28/79/28 27/80/27 68/81/68 65/82/65 63/83/63 34/84/34 33/85/33 62/86/62 58/87/58 57/88/57 51/89/51 48/90/48 47/91/47 42/92/42 41/93/41 21/94/21 20/95/20 39/96/39 38/97/38 46/98/46 15/99/15 14/100/14 32/101/32 23/102/23 17/103/17 11/104/11
f 56/62/56 55/61/55 26/105/26 25/106/25
f 24/30/24 23/29/23 32/38/32 31/37/31
f 65/71/65 68/74/68 67/73/67 66/72/66
